<svg xmlns="http://www.w3.org/2000/svg" viewBox="0 0 985 150" role="img" aria-label="TWORK"><path fill="#101114" d="M690 25 L690 30 L694 32 L708 32 L709 33 L763 33 L764 34 L771 34 L777 37 L783 43 L786 49 L786 61 L783 68 L774 76 L765 77 L764 78 L717 78 L716 79 L703 79 L697 81 L692 87 L691 95 L690 96 L690 124 L692 126 L697 128 L701 126 L702 124 L702 119 L703 118 L703 96 L704 92 L709 89 L752 89 L777 116 L789 127 L793 128 L797 125 L798 122 L796 119 L769 90 L773 87 L778 86 L786 82 L794 74 L798 65 L799 55 L798 54 L797 44 L792 35 L784 28 L773 23 L698 22 L697 23 L692 23 Z M7 22 L4 27 L4 29 L7 32 L10 33 L52 33 L56 36 L57 39 L57 120 L58 121 L58 125 L62 128 L66 127 L68 125 L68 121 L69 120 L69 38 L70 35 L73 33 L116 33 L119 32 L122 29 L119 22 Z M877 24 L877 34 L876 35 L876 123 L882 128 L887 126 L888 124 L888 115 L889 114 L889 89 L900 81 L903 80 L968 125 L974 128 L977 127 L980 122 L976 117 L914 73 L930 61 L975 33 L979 29 L978 24 L975 22 L972 22 L964 26 L890 75 L889 74 L889 32 L888 31 L888 26 L883 21 Z M391 25 L387 22 L383 22 L379 27 L345 96 L345 98 L338 110 L335 108 L315 67 L315 65 L296 27 L293 23 L288 21 L281 25 L259 69 L259 71 L248 92 L248 94 L241 108 L238 111 L196 24 L193 22 L189 22 L186 24 L185 28 L210 80 L210 82 L223 107 L223 109 L229 121 L234 127 L241 128 L246 123 L259 98 L259 96 L270 75 L270 73 L286 41 L288 39 L290 41 L332 126 L336 128 L342 127 L346 122 L382 49 L382 47 L389 33 Z M612 4 L604 7 L590 16 L579 27 L574 34 L568 45 L564 57 L563 68 L562 69 L562 81 L567 101 L579 122 L590 133 L600 140 L611 145 L616 145 L608 139 L595 126 L589 118 L581 102 L577 86 L577 62 L582 44 L588 33 L597 21 L607 11 L615 5 Z M460 4 L479 23 L487 34 L493 46 L497 63 L497 85 L492 105 L488 113 L477 128 L459 145 L463 145 L476 139 L484 133 L494 123 L502 112 L510 93 L511 79 L512 78 L512 66 L511 65 L510 56 L506 45 L496 28 L479 12 L470 7 Z"/></svg>